<svg xmlns="http://www.w3.org/2000/svg" width="240.002" height="60" viewBox="0 0 240.002 60">
  <path id="logo-fashion" d="M2338.345-662.184a7.814,7.814,0,0,1-2.875-3.334,11.45,11.45,0,0,1-1.018-4.956,11.449,11.449,0,0,1,1.018-4.956,7.813,7.813,0,0,1,2.875-3.334,7.827,7.827,0,0,1,4.3-1.184,7.83,7.83,0,0,1,4.305,1.184,7.819,7.819,0,0,1,2.874,3.334,11.449,11.449,0,0,1,1.018,4.956,11.45,11.45,0,0,1-1.018,4.956,7.82,7.82,0,0,1-2.874,3.334A7.83,7.83,0,0,1,2342.65-661,7.827,7.827,0,0,1,2338.345-662.184Zm.013-15.562q-1.044,1.634-1.044,5.6a16.626,16.626,0,0,0,.8,5.2,9.821,9.821,0,0,0,2.243,3.913,4.48,4.48,0,0,0,3.274,1.468,3.7,3.7,0,0,0,3.261-1.6q1.1-1.6,1.1-5.535a16.053,16.053,0,0,0-.838-5.213,10.275,10.275,0,0,0-2.32-3.964,4.552,4.552,0,0,0-3.313-1.506A3.5,3.5,0,0,0,2338.358-677.746Zm-20.765,15.562a7.815,7.815,0,0,1-2.875-3.334,11.457,11.457,0,0,1-1.018-4.956,11.456,11.456,0,0,1,1.018-4.956,7.815,7.815,0,0,1,2.875-3.334,7.829,7.829,0,0,1,4.3-1.184,8.166,8.166,0,0,1,3.287.643,7.316,7.316,0,0,1,2.565,1.854v4.582h-.567a11.72,11.72,0,0,0-1.908-3.874,7.226,7.226,0,0,0-2.358-2.046,4.947,4.947,0,0,0-2.153-.592,3.5,3.5,0,0,0-3.158,1.635q-1.044,1.634-1.044,5.6a14.249,14.249,0,0,0,.8,4.917,8.169,8.169,0,0,0,2.229,3.437,4.855,4.855,0,0,0,3.287,1.249,8.816,8.816,0,0,0,2.307-.3,7.658,7.658,0,0,0,1.92-.786l.387.412a6.883,6.883,0,0,1-2.436,1.622,8.3,8.3,0,0,1-3.158.592A7.829,7.829,0,0,1,2317.593-662.184Zm-71.356,0a7.814,7.814,0,0,1-2.875-3.334,11.45,11.45,0,0,1-1.018-4.956,11.449,11.449,0,0,1,1.018-4.956,7.813,7.813,0,0,1,2.875-3.334,7.829,7.829,0,0,1,4.305-1.184,7.829,7.829,0,0,1,4.3,1.184,7.813,7.813,0,0,1,2.875,3.334,11.456,11.456,0,0,1,1.018,4.956,11.457,11.457,0,0,1-1.018,4.956,7.814,7.814,0,0,1-2.875,3.334,7.828,7.828,0,0,1-4.3,1.184A7.829,7.829,0,0,1,2246.237-662.184Zm.013-15.562q-1.044,1.634-1.044,5.6a16.64,16.64,0,0,0,.8,5.2,9.821,9.821,0,0,0,2.243,3.913,4.481,4.481,0,0,0,3.274,1.468,3.7,3.7,0,0,0,3.261-1.6q1.1-1.6,1.1-5.535a16.066,16.066,0,0,0-.837-5.213,10.273,10.273,0,0,0-2.32-3.964,4.552,4.552,0,0,0-3.313-1.506A3.493,3.493,0,0,0,2246.25-677.746Zm-52.615,16.438a7.967,7.967,0,0,1-1.779-.683,2.817,2.817,0,0,1-.863-.657v-3.578h.567a3.588,3.588,0,0,0,.838,2.214,6.621,6.621,0,0,0,2.088,1.763,4.944,4.944,0,0,0,2.358.683q3.609,0,3.609-3.372a2.526,2.526,0,0,0-.542-1.6,5.692,5.692,0,0,0-1.353-1.236q-.812-.541-2.256-1.313a31.78,31.78,0,0,1-3.016-1.815,7.511,7.511,0,0,1-1.985-2.072,5.328,5.328,0,0,1-.825-2.986,3.336,3.336,0,0,1,1.495-3.038,6.729,6.729,0,0,1,3.686-.952,9.845,9.845,0,0,1,4.8,1.416v3.964h-.567a3.969,3.969,0,0,0-.722-2.008,7.03,7.03,0,0,0-1.856-1.983,3.846,3.846,0,0,0-2.269-.824q-2.295,0-2.294,2.549a2.756,2.756,0,0,0,.618,1.725,6.575,6.575,0,0,0,1.533,1.416q.916.618,2.514,1.519,1.779,1,2.861,1.751a7.63,7.63,0,0,1,1.831,1.763,3.793,3.793,0,0,1,.747,2.3,4.639,4.639,0,0,1-1.817,4.067,8.1,8.1,0,0,1-4.782,1.287A9.913,9.913,0,0,1,2193.635-661.308Zm176.5.026v-.258a.907.907,0,0,0,.7-.476,1.632,1.632,0,0,0,.335-.94v-15.06l-5.671,16.734h-.619l-5.98-15.987v14.314a1.631,1.631,0,0,0,.335.94.907.907,0,0,0,.7.476v.258h-2.63v-.258a.906.906,0,0,0,.7-.476,1.638,1.638,0,0,0,.335-.94v-15.06a1.638,1.638,0,0,0-.335-.94.908.908,0,0,0-.7-.476v-.257h3.609l5.414,14.314,4.846-14.314h3.892v.257a.908.908,0,0,0-.7.476,1.633,1.633,0,0,0-.335.94v15.06a1.633,1.633,0,0,0,.335.94.906.906,0,0,0,.7.476v.258Zm-74.862,0v-.258a.905.905,0,0,0,.7-.476,1.631,1.631,0,0,0,.335-.94v-15.06a1.631,1.631,0,0,0-.335-.94.907.907,0,0,0-.7-.476v-.257h11.988v2.96H2307a1.716,1.716,0,0,0-.464-1.094,3.491,3.491,0,0,0-1.34-.927,5.021,5.021,0,0,0-1.985-.373h-4.048v8.547h.774a7.141,7.141,0,0,0,2.784-.438q1.006-.437,1.006-1.21h.257v3.861h-.257q0-.773-1.006-1.21a7.143,7.143,0,0,0-2.784-.438h-.774v8.16h4.048a5.021,5.021,0,0,0,1.985-.373,3.5,3.5,0,0,0,1.34-.927,1.715,1.715,0,0,0,.464-1.094h.258v2.96Zm-18.2,0-10.286-16.347v14.674a1.628,1.628,0,0,0,.335.94.906.906,0,0,0,.7.476v.258h-2.63v-.258a.906.906,0,0,0,.7-.476,1.632,1.632,0,0,0,.335-.94v-15.06a1.632,1.632,0,0,0-.335-.94.907.907,0,0,0-.7-.476v-.257h3.609l8.868,14.082v-12.409a1.633,1.633,0,0,0-.334-.94.909.909,0,0,0-.7-.476v-.257h2.629v.257a.907.907,0,0,0-.7.476,1.633,1.633,0,0,0-.335.94v16.734Zm-46.093,0v-.258a.906.906,0,0,0,.7-.476,1.633,1.633,0,0,0,.335-.94v-15.06a1.633,1.633,0,0,0-.335-.94.908.908,0,0,0-.7-.476v-.257h4.924v.257a.908.908,0,0,0-.7.476,1.628,1.628,0,0,0-.335.94v15.06a1.628,1.628,0,0,0,.335.94.906.906,0,0,0,.7.476v.258Zm-11.111,0v-.258a.906.906,0,0,0,.7-.476,1.632,1.632,0,0,0,.335-.94v-7.054h-8.043v7.054a1.632,1.632,0,0,0,.335.94.906.906,0,0,0,.7.476v.258h-4.924v-.258a.906.906,0,0,0,.7-.476,1.633,1.633,0,0,0,.335-.94v-15.06a1.633,1.633,0,0,0-.335-.94.908.908,0,0,0-.7-.476v-.257h4.924v.257a.908.908,0,0,0-.7.476,1.632,1.632,0,0,0-.335.94v7.44h8.043v-7.44a1.632,1.632,0,0,0-.335-.94.908.908,0,0,0-.7-.476v-.257h4.924v.257a.907.907,0,0,0-.7.476,1.633,1.633,0,0,0-.335.94v15.06a1.633,1.633,0,0,0,.335.94.906.906,0,0,0,.7.476v.258Zm-39.957,0v-.258a.42.42,0,0,0,.387-.219,1.135,1.135,0,0,0,.128-.579,1.79,1.79,0,0,0-.1-.618l-1.289-3.475h-6.522l-1.212,3.6a1.462,1.462,0,0,0-.052.438,1.093,1.093,0,0,0,.155.618.474.474,0,0,0,.412.232v.258h-2.63v-.258a1.466,1.466,0,0,0,.838-.3,2.013,2.013,0,0,0,.684-.94l5.672-16.914h.9l6.084,16.733.025.052-.025-.077.025.026v.052a2.294,2.294,0,0,0,.734,1,1.512,1.512,0,0,0,.89.36v.258ZM2172.69-667h6.135l-3.222-8.7ZM2154-661.283v-.258a.906.906,0,0,0,.7-.476,1.631,1.631,0,0,0,.335-.94v-15.06a1.631,1.631,0,0,0-.335-.94.908.908,0,0,0-.7-.476v-.257h11.987v2.96h-.258a1.716,1.716,0,0,0-.464-1.094,3.5,3.5,0,0,0-1.341-.927,5.017,5.017,0,0,0-1.985-.373h-4.048v8.547h.774a7.144,7.144,0,0,0,2.784-.438q1-.437,1-1.21h.258v3.861h-.258q0-.773-1-1.21a7.145,7.145,0,0,0-2.784-.438h-.774v7.054a1.634,1.634,0,0,0,.335.94.907.907,0,0,0,.7.476v.258Zm231.833-1.611v-7.032h-6.99v-1.137h6.99v-6.989h1.137v6.989H2394v1.137h-7.031v7.032ZM2262.944-691a3.51,3.51,0,0,1-2.89,1.064c-2.361,0-5.385-2.435-5.991-4.825a4.512,4.512,0,0,0-1.351-1.962,5.773,5.773,0,0,1-2.079-4.417,5.158,5.158,0,0,1,1.338-3.221c-.161-.484-.526-1.56-.813-2.333-.4-1.082-1.394-5.982,1.555-8.4a12.8,12.8,0,0,1,2.082-1.444c.617-.348.826-.466,1.842-2.075a5.149,5.149,0,0,1,3.614-2.284,5.443,5.443,0,0,1,3.833.593c.123.1.265.208.415.324a11.922,11.922,0,0,1,1.475,1.271,6.787,6.787,0,0,1,6.066-2.069,9,9,0,0,1,6,4.841,1.934,1.934,0,0,0,.649.607c.928.679,2.331,1.7,3.206,5.151.5,1.986.414,3.55-.269,4.648a2.871,2.871,0,0,1-1.28,1.136,3.784,3.784,0,0,1,.882,3.357,7.563,7.563,0,0,1-3.089,5.245,18.8,18.8,0,0,0-1.4,1.276,12.973,12.973,0,0,0-1.248,1.588c-1.218,1.731-2.477,3.521-6.475,3.521C2265.181-689.418,2263.563-690.416,2262.944-691Zm6.073.531c3.451,0,4.453-1.424,5.615-3.073a13.684,13.684,0,0,1,1.352-1.714,19.53,19.53,0,0,1,1.47-1.345,6.557,6.557,0,0,0,2.735-4.635c.377-2.034-1.037-2.979-2.4-3.891-.339-.226-.67-.449-.959-.683-.437,4.2-1.865,5.314-2.653,5.607.009.119.015.239.015.365a4.368,4.368,0,0,1-1.715,3.76,4.393,4.393,0,0,1-2.566.815,3.816,3.816,0,0,1-1.161-.171,2.547,2.547,0,0,0-1.534-.151c-.344.047-.8.107-1.53.144a3.988,3.988,0,0,1-1.893,3.774h0C2264.315-691.247,2265.729-690.471,2269.016-690.472Zm-17.333-10.672a4.773,4.773,0,0,0,1.78,3.682,5.428,5.428,0,0,1,1.617,2.438,6.2,6.2,0,0,0,4.971,4.03,2.509,2.509,0,0,0,2.19-.8,4.77,4.77,0,0,1,.436-.394c.1-.081.224-.16.351-.244a3.01,3.01,0,0,0,1.6-2.984l-.351,0a3.14,3.14,0,0,1-2.644-1.09,3.318,3.318,0,0,1-.6-2.094,4.308,4.308,0,0,1-1.594.316,3.791,3.791,0,0,1-2.971-1.118,3.545,3.545,0,0,1-.758-2.855,14.1,14.1,0,0,1,.36-1.741,10.535,10.535,0,0,0,.427-2.644C2255.146-705.873,2251.684-703.669,2251.684-701.144Zm17.387,4.7a3.3,3.3,0,0,0,2.785-.494,3.413,3.413,0,0,0,1.281-2.909,2.881,2.881,0,0,0-2.021-2.848,4.948,4.948,0,0,1-.594.755,3.429,3.429,0,0,1-.769,2.286,2.77,2.77,0,0,1-2.148.849,4.492,4.492,0,0,1-3.54-1.348,3.337,3.337,0,0,1-.356-.479,8.116,8.116,0,0,1-1.559,1.431,2.761,2.761,0,0,0,.322,2.055,2.161,2.161,0,0,0,1.807.675,18.758,18.758,0,0,0,2.795-.167,5.407,5.407,0,0,1,.714-.063A4.025,4.025,0,0,1,2269.07-696.44Zm-11.587-14.7a3.069,3.069,0,0,0-.241,2.78h0a7.6,7.6,0,0,1-.153,4.625,13.388,13.388,0,0,0-.335,1.608,2.589,2.589,0,0,0,.5,2.032,2.8,2.8,0,0,0,2.184.765c1.77,0,3.181-1.592,3.718-2.294a2.733,2.733,0,0,1-1.207-1.939,1.6,1.6,0,0,1-.912-.772,3.353,3.353,0,0,1-.351-1.61c0-1.233.473-2.861,1.368-3.374a2.97,2.97,0,0,1-.823-1.321.527.527,0,0,1-.092-.24c-.016-.118-.2-1.2-1.752-1.2A2.207,2.207,0,0,0,2257.483-711.143Zm10.12,11.291a1.744,1.744,0,0,0,1.37-.506,1.784,1.784,0,0,0,.377-.7,3.86,3.86,0,0,1-1.331.406.527.527,0,0,1-.153.025.525.525,0,0,1-.067-.007c-.064,0-.127.007-.19.007a11.5,11.5,0,0,1-2.825-.3A3.427,3.427,0,0,0,2267.6-699.852Zm4.891-9.314a4.047,4.047,0,0,1-.573,4.123,5.294,5.294,0,0,1-.328,1.406,4.014,4.014,0,0,1,2.357,2.362c.57-.33,1.757-1.563,1.931-6.144a4.269,4.269,0,0,0-1.3-3.676c-1.883-1.536-5.195-.748-5.228-.74a.5.5,0,0,1-.054.01,1.373,1.373,0,0,0-.874.464.435.435,0,0,0-.053.267c.127-.008.273-.013.433-.013C2269.946-711.106,2271.792-710.83,2272.494-709.165Zm-9.464,5.624c.287,1.187,1.714,1.81,4.253,1.859a11.52,11.52,0,0,0-1.84-3.917A3.519,3.519,0,0,1,2263.03-703.541Zm3.172-6.628c-.107.037-.192.066-.14.325a1.349,1.349,0,0,1-.293,1.222,1.87,1.87,0,0,1-.971.518,16.241,16.241,0,0,1,1.421,1.775,13.157,13.157,0,0,1,2.118,4.55,3.418,3.418,0,0,0,1.932-1.538,4.46,4.46,0,0,0,.1-4.365,4.977,4.977,0,0,0-3.807-2.539A1.137,1.137,0,0,0,2266.2-710.17Zm-4.463,4.223a2.355,2.355,0,0,0,.217,1.1.809.809,0,0,0,.045.071s.812.8,2.5-.875c.762-.757-.056-1.276-.594-1.769l-1.129-.976a.381.381,0,0,0-.134-.034C2262.349-708.431,2261.739-707.281,2261.739-705.946Zm4.862-11.915a2.375,2.375,0,0,1,.278.9,10.073,10.073,0,0,1,3.035,1.475,5.136,5.136,0,0,1,2.04,2.412,5.812,5.812,0,0,1,3.291,1.165,5.231,5.231,0,0,1,1.691,4.479c0,.013,0,.024,0,.037,0,.433.7.9,1.43,1.388.366.244.768.513,1.155.824a.515.515,0,0,1,.24-.13,1.742,1.742,0,0,0,.98-.811,5.164,5.164,0,0,0,.126-3.806c-.782-3.08-1.952-3.935-2.808-4.56a2.645,2.645,0,0,1-.993-1.037,7.953,7.953,0,0,0-5.226-4.227,5.149,5.149,0,0,0-.955-.09A6.169,6.169,0,0,0,2266.6-717.861Zm-6.179-2.007a4.123,4.123,0,0,0-2.9,1.808c-1.1,1.745-1.43,1.988-2.215,2.43a11.906,11.906,0,0,0-1.931,1.342c-2.484,2.039-1.528,6.44-1.236,7.222.21.564.459,1.283.643,1.826a16.77,16.77,0,0,1,3.551-2.512c-.024-.081-.051-.163-.082-.244a4.132,4.132,0,0,1,.363-3.749,3.261,3.261,0,0,1,2.768-1.388,3.232,3.232,0,0,1,1.5.333c0-.109-.006-.218-.006-.333a3.736,3.736,0,0,1,1.241-2.986,5.162,5.162,0,0,1,3.646-1.026,5.611,5.611,0,0,0-1.913-2.009c-.156-.119-.3-.231-.435-.338a3.846,3.846,0,0,0-2.04-.453A5.9,5.9,0,0,0,2260.421-719.868Zm10.892,11.714a6.075,6.075,0,0,1,.412,1.06,2.932,2.932,0,0,0-.2-1.663,2.2,2.2,0,0,0-1.73-1.209A5.51,5.51,0,0,1,2271.314-708.153Zm-7.918-1.109a3.424,3.424,0,0,1,.326.2,1.95,1.95,0,0,0,1.263-.265c.027-.028.087-.1.044-.308-.005-.03-.009-.057-.014-.085a1.761,1.761,0,0,0-.2-.011A2.8,2.8,0,0,0,2263.4-709.262Zm-.586-6.056a2.734,2.734,0,0,0-.874,2.187c0,2.075.541,2.793.823,3.026a3.67,3.67,0,0,1,2.5-.646,1.291,1.291,0,0,1,.6-.414,2.768,2.768,0,0,1,1.46-.017,1.483,1.483,0,0,1,.189-.7,2.347,2.347,0,0,1,1.618-.983,9.922,9.922,0,0,1,1.7-.222,7.885,7.885,0,0,0-4.689-2.962,5.217,5.217,0,0,0-.79-.059A3.958,3.958,0,0,0,2262.81-715.318Z" transform="translate(-2154 721)"/>
</svg>
